<?xml version="1.0" encoding="UTF-8" standalone="no"?>
<!-- Created with Inkscape (http://www.inkscape.org/) -->

<svg
   width="30"
   height="30"
   viewBox="0 0 30 30"
   version="1.1"
   id="bin"
   xmlns="http://www.w3.org/2000/svg"
   xmlns:svg="http://www.w3.org/2000/svg">
  <path
     id="bottom"
     style="color:#000000;display:inline;fill:#595959;fill-opacity:1;stroke-width:1;stroke-dashoffset:30;-inkscape-stroke:none"
     d="m 22.464891,25.746392 a 7.4656428,2.2196769 0 0 1 -7.465643,2.219677 7.4656428,2.2196769 0 0 1 -7.4656433,-2.219677 7.4656428,2.2196769 0 0 1 7.4656433,-2.219678 7.4656428,2.2196769 0 0 1 7.465643,2.219678 z M 11.668232,2.56233 8.3364624,6.4643441 5.2655522,2.8678354 4.9531989,3.2336492 8.3364624,7.1959718 11.668232,3.2939577 15,7.1959718 18.331769,3.2939577 21.663538,7.1959718 25.034608,3.2388048 24.722255,2.872991 21.663538,6.4643441 18.331769,2.56233 15,6.4643441 Z m -3.3317696,0 L 4.848517,6.6472511 5.1608704,7.0130649 8.3364624,3.2939577 11.668232,7.1959718 15,3.2939577 18.331769,7.1959718 21.663538,3.2939577 24.83913,7.0130649 25.151483,6.6472511 21.663538,2.56233 18.331769,6.4643441 15,2.56233 11.668232,6.4643441 Z" />
  <path
     id="back"
     style="color:#000000;display:inline;fill:#949494;fill-opacity:1;stroke-width:1.0822;stroke-dashoffset:30;-inkscape-stroke:none"
     d="m 21.975891,7.5541646 -0.624706,0.7316277 3.149562,3.6810017 0.618199,-0.731627 z m -6.670045,0 -0.618199,0.7316277 8.973651,10.3571037 0.618199,-0.739249 z M 6.4037764,18.345673 5.7465326,19.023952 13.073822,28.72564 13.731065,28.039738 Z m -0.9045233,-7.095264 -0.631214,0.716385 13.6264139,16.37779 0.631214,-0.716386 z M 8.6488157,7.5541646 8.0241091,8.2781712 22.534271,25.724813 23.165485,25.000806 Z M 23.348714,25.745495 c 0,-0.855924 -0.514822,-1.393238 -1.014105,-1.744205 C 21.835326,23.650324 21.21968,23.392824 20.492348,23.176574 19.037684,22.744074 17.122049,22.490991 15,22.490991 c -2.12205,0 -4.04457,0.253084 -5.4992354,0.685583 -0.7273324,0.21625 -1.3343686,0.47375 -1.8336522,0.824716 -0.4992829,0.350967 -1.0158263,0.888281 -1.015826,1.744205 m 0.8815304,0 C 7.5358168,24.520053 10.878356,23.527178 15,23.527431 c 4.120971,3e-5 7.462466,0.992821 7.465461,2.218064" />
  <path
     id="front"
     style="color:#000000;display:inline;fill:#757575;fill-opacity:1;stroke-width:1;stroke-dashoffset:30;-inkscape-stroke:none"
     d="m 6.6512864,25.745495 c 4e-7,0.855926 0.5165431,1.401304 1.015826,1.752271 0.4992836,0.350966 1.1063198,0.6004 1.8336522,0.816651 C 10.95543,28.746916 12.877951,29 15,29 c 2.122049,0 4.037684,-0.253085 5.492348,-0.685583 0.727332,-0.21625 1.342978,-0.465685 1.842261,-0.816651 0.499283,-0.350967 1.014105,-0.896345 1.014105,-1.752271 m -0.883253,0 C 22.466211,26.971525 19.12362,27.965546 15,27.965576 10.875708,27.965829 7.5320668,26.971725 7.5328168,25.745495 M 15,1.0000002 c -2.875052,0 -5.4781324,0.3300385 -7.4248987,0.8916711 C 6.6017181,2.1724877 5.797656,2.5014267 5.1608704,2.935765 4.5240846,3.3701033 3.9179645,4.0057127 3.9179644,4.9782254 c 1e-7,0.9725131 0.6061202,1.6005013 1.242906,2.0348395 C 5.797656,7.4474031 6.6017181,7.7763422 7.5751013,8.0571584 9.5218676,8.6187913 12.124948,8.9488299 15,8.9488299 c 2.875052,0 5.478132,-0.3300402 7.424899,-0.8916715 0.973383,-0.2808162 1.777445,-0.6097553 2.414231,-1.0440935 0.636785,-0.4343382 1.242906,-1.0623264 1.242906,-2.0348395 0,-0.9725127 -0.606121,-1.6081221 -1.242906,-2.0424604 C 24.202344,2.5014267 23.398282,2.1724877 22.424899,1.8916713 20.478132,1.3300387 17.875052,1.0000002 15,1.0000002 Z m 0,2.0653239 c 2.757695,0 5.257378,0.3274101 7.00192,0.8307023 0.872271,0.2516447 1.5568,0.5610023 1.952209,0.8307021 0.395408,0.2696994 0.364412,0.4114997 0.364412,0.2514965 0,-0.160002 0.03099,-0.018183 -0.364412,0.2514965 C 23.55872,5.4994221 22.874191,5.8011574 22.00192,6.0528034 20.257378,6.5560958 17.757695,6.8835059 15,6.8835059 12.242305,6.8835059 9.7426216,6.5560958 7.9980797,6.0528034 7.1258086,5.8011574 6.4412797,5.4994221 6.0458714,5.2297223 5.6504631,4.9600229 5.6814592,4.818223 5.6814592,4.9782254 c 0,0.1600021 -0.030986,0.018222 0.3644122,-0.2514965 C 6.4412797,4.4570287 7.1258086,4.1476724 7.9980797,3.8960264 9.7426216,3.3927343 12.242305,3.0653241 15,3.0653241 Z m 10.209298,1.835369 -2.739925,20.8562779 0.906519,0.06773 2.705392,-20.7715883 z M 4.7957069,4.9997677 3.9237206,5.1521901 6.6448675,25.896883 7.5356308,25.768212 Z M 14.681139,7.5617856 5.7595475,18.322809 6.3907615,19.046815 15.312353,8.2781712 Z M 8.0241091,7.5541646 4.8745465,11.242787 5.4927459,11.974415 8.6488157,8.2857923 Z M 23.51434,18.4038 l -7.223569,9.506279 0.709302,0.60969 7.223569,-9.498659 z m 0.9799,-7.161013 -13.606892,16.362547 0.631214,0.716386 13.606891,-16.354926 z M 21.735118,7.3026673 6.7812031,25.029396 7.412417,25.753402 22.359825,8.0266739 Z" />
</svg>