<?xml version="1.0" encoding="UTF-8" standalone="no"?>
<!-- Created with Inkscape (http://www.inkscape.org/) -->

<svg
   width="30"
   height="30"
   viewBox="0 0 30 30"
   version="1.1"
   id="count"
   xmlns="http://www.w3.org/2000/svg"
   xmlns:svg="http://www.w3.org/2000/svg">
  <path
     id="tally"
     style="fill:#3867ff;fill-opacity:1;stroke:none;stroke-width:1.5;stroke-linejoin:miter;stroke-dasharray:none;stroke-dashoffset:30"
     d="m 25.738962,7.8480083 c -0.104904,0.3293169 -0.345923,1.1277703 -0.497765,1.3058582 -0.277046,0.3249321 -0.688634,0.5051181 -1.030638,0.7607902 -0.596538,0.4459523 -1.021241,0.8705113 -1.740159,1.0979383 -0.289215,0.09149 -0.599569,0.09263 -0.899354,0.138948 -0.197429,0.09781 -0.3822,0.227042 -0.592289,0.293441 -0.285125,0.09011 -0.592729,0.09051 -0.880433,0.172017 -0.190255,0.0539 -1.048214,0.452509 -1.252084,0.493299 -0.962194,0.05418 -0.529285,-0.01701 -1.305216,0.169476 -0.831078,0.267596 -1.707186,0.364409 -2.541143,0.618361 -0.429715,0.130856 -0.83957,0.320048 -1.254873,0.491229 -0.305542,0.125939 -0.588775,0.311469 -0.907193,0.399936 -1.88822,0.524613 -0.217239,-0.239502 -1.360544,0.325192 -0.629811,0.07631 -0.843409,0.05568 -1.443012,0.32738 -0.2318686,0.105065 -0.4351303,0.264479 -0.6566209,0.389953 -0.2346615,0.132933 -0.4713888,0.262423 -0.7115644,0.385114 -0.2595771,0.132602 -0.5261755,0.251039 -0.787301,0.380565 -0.3126611,0.15509 -0.6226559,0.315498 -0.9339838,0.473247 -0.2549125,0.09555 -0.509825,0.191097 -0.7647375,0.286645 -0.1929437,0.04119 -0.3932912,0.05651 -0.5788312,0.123581 -0.055465,0.02005 -0.076304,0.09056 -0.1207475,0.129327 -0.06847,0.05973 -0.1453775,0.109057 -0.2168418,0.165168 -0.1159633,0.09105 -0.2209247,0.197279 -0.3454032,0.27629 -0.2193129,0.139207 -0.4549949,0.250772 -0.6824923,0.376158 -0.5517019,0.403801 -0.6546432,0.540541 -1.3124215,0.772226 -0.4321346,0.152207 -0.9326881,0.172971 -1.3447384,0.390635 0,0 2.4887001,1.176996 2.4887001,1.176996 v 0 c 0.1310541,-0.276585 -0.035864,0.01018 0.574825,-0.200548 0.2142641,-0.07393 0.4105719,-0.192187 0.6153223,-0.289414 1.1395375,-0.541116 0.3422956,-0.176951 1.5720698,-0.724508 0.095484,-0.081 0.7404065,-0.618636 0.8922159,-0.775371 0.1268088,-0.130923 -0.073719,-0.111966 0.203641,-0.206939 2.0850154,-0.713945 -1.3841906,0.668161 1.3272258,-0.448245 0.9626316,-0.389216 0.9918086,-0.368164 1.8293646,-0.814067 0.235838,-0.125558 0.464836,-0.263561 0.697179,-0.395474 0.212183,-0.120466 0.411194,-0.267766 0.636399,-0.361664 0.634489,-0.264546 0.863526,-0.208216 1.554034,-0.235437 0.16458,-0.06982 0.324032,-0.153236 0.493739,-0.209455 1.134369,-0.375776 0.457851,-0.0066 1.731125,-0.573101 0.37424,-0.166492 0.711434,-0.415638 1.097253,-0.553183 0.788228,-0.281005 1.746789,-0.410559 2.578524,-0.548394 0.320225,-0.02208 1.110393,-0.05309 1.422807,-0.167148 0.173976,-0.06352 0.289693,-0.241692 0.462869,-0.307358 0.261121,-0.09901 0.547297,-0.112106 0.818544,-0.178538 0.522184,-0.127888 1.032084,-0.303447 1.560059,-0.409267 0.225426,-0.09572 0.450676,-0.191848 0.676278,-0.287152 0.324629,-0.137137 0.656086,-0.258974 0.97441,-0.410169 0.4045,-0.192127 0.88366,-0.294551 1.192334,-0.618978 0.259162,-0.272387 0.193791,-0.740246 0.400009,-1.0546246 0.200458,-0.3055959 0.526865,-0.5066575 0.790298,-0.7599863 0.08454,-0.1589618 0.169082,-0.3179236 0.253623,-0.4768855 z M 21.675753,4.6400394 c -0.0069,0.2938946 -0.02757,0.5877886 -0.0207,0.8816838 0.01145,0.4892702 0.0986,0.9774 0.07562,1.4662636 -0.05284,1.123665 -0.375928,2.2942254 -0.548424,3.3975182 -0.103027,0.658973 -0.248833,2.156969 -0.321421,2.864864 -0.04047,5.047394 0.06619,-2.755361 -0.168485,2.727957 -0.01481,0.345954 0.0568,0.691243 0.05248,1.037488 -0.0027,0.216373 -0.08282,0.428808 -0.07349,0.644997 0.16109,0.689086 0.128558,0.349721 0.112919,1.016512 -0.0773,0.648051 -0.09052,0.598345 -0.08583,1.294997 0.0021,0.301233 0.06191,0.604172 0.02655,0.903331 -0.03163,0.26766 -0.165274,0.513805 -0.225102,0.776605 -0.06475,0.28444 -0.08331,0.588003 -0.107159,0.879615 -0.04746,0.191802 0.09587,0.345451 0.113312,0.522961 0.0084,0.08544 -0.03394,0.17166 -0.02169,0.256631 0.01781,0.123599 0.07898,0.237141 0.110272,0.358031 0.08548,0.330185 0.07182,0.268511 0.06711,0.541411 -0.02203,0.03842 -0.04406,0.07685 -0.06608,0.115275 0,0 2.597567,0.640637 2.597567,0.640637 v 0 c 8.82e-4,0.02506 0.0018,0.05012 0.0027,0.07518 0.06508,-0.386927 0.04118,-0.08029 -0.0405,-0.593723 -0.02003,-0.125907 -0.02978,-0.440274 -0.08929,-0.587078 -0.03078,-0.07595 -0.116252,-0.129915 -0.125616,-0.211325 -0.0089,-0.07711 0.05066,-0.146732 0.07599,-0.220098 0.06143,-0.492986 0.03611,-0.235712 0.07433,-0.913712 0.01565,-0.277541 0.01733,-0.556136 0.04513,-0.832723 0.07477,-0.743824 0.296762,-1.470078 0.115222,-2.219489 0.05255,-0.38892 0.09444,-0.552656 0.06865,-0.947309 -0.01484,-0.227166 -0.06872,-0.450854 -0.08039,-0.678206 -0.01732,-0.337478 -0.02002,-0.676097 -0.0064,-1.013745 0.06004,-1.490989 0.07169,-1.279491 0.357896,-2.653747 0.129225,-1.850952 0.03965,-0.890342 0.28,-2.880758 0.04716,-0.601126 0.02098,-1.206878 0.07628,-1.8073093 0.105993,-1.1510243 0.36218,-1.9492926 0.384759,-3.0912966 0.0063,-0.3231556 -0.06202,-0.6434563 -0.09302,-0.9651844 z M 16.583274,4.257426 c -0.571956,0.8614518 -0.148808,0.089528 -0.490095,1.3806506 -0.761244,2.8798597 -0.02627,-1.411167 -0.528522,3.6646502 -0.43297,4.3756012 -0.339748,0.8895102 -0.344686,4.6861002 0.05989,0.425075 0.119771,0.850151 0.179656,1.275225 0.0069,0.243969 -0.0133,0.490197 0.02054,0.731906 0.174479,1.246604 0.199873,-0.0388 0.291335,1.344433 0.02719,0.411147 0.0047,0.824076 0.007,1.236115 0.03389,0.494319 0.06777,0.988638 0.101661,1.482958 -0.325687,1.585721 -0.295965,0.973141 -0.237327,2.633165 0.01279,0.362046 0.06136,0.722712 0.06314,1.084979 0.0018,0.370198 -0.133452,0.598804 0.01432,0.932291 0.037,0.0835 0.112294,0.144074 0.168441,0.216111 -0.01737,0.05477 -0.03475,0.109539 -0.05212,0.164309 0.0029,0.08371 0.03039,0.170258 0.0086,0.251112 -0.0249,0.09217 -0.119441,0.155527 -0.143371,0.247951 -0.02069,0.0799 0.03585,0.167229 0.01518,0.247133 -0.01365,0.05281 -0.161129,0.100936 -0.110343,0.120827 0.864607,0.338622 1.763747,0.581408 2.64562,0.872111 -0.0016,-0.08428 -0.0032,-0.168555 -0.0048,-0.252833 0,0 -2.571664,-0.858632 -2.571664,-0.858632 v 0 c 0.0038,0.0857 0.0074,0.171408 0.01115,0.257112 0.823828,0.293534 1.633761,0.629453 2.471484,0.8806 0.04313,0.01293 6.3e-4,-0.09307 0.02035,-0.133553 0.03665,-0.07524 0.116271,-0.126481 0.144671,-0.205207 0.03405,-0.09439 0.02683,-0.19892 0.03712,-0.298735 0.01304,-0.126458 0.03499,-0.424442 0.04602,-0.569977 0.154744,-0.224719 0.03864,0.01024 -0.06183,-0.385757 -0.05481,-0.216027 -0.107175,-0.437811 -0.102952,-0.660643 0.0065,-0.342264 0.129978,-0.675803 0.134767,-1.018096 0.06396,-4.570883 -0.322671,1.693448 -0.0059,-2.711242 -0.0144,-0.489697 -0.02952,-0.979373 -0.0432,-1.469091 -0.01275,-0.456607 -0.0091,-1.496272 -0.106315,-2.039337 -0.02772,-0.154768 -0.37854,-1.267916 -0.390148,-1.345271 -0.0601,-0.400478 -0.04924,-0.808426 -0.07386,-1.212639 0.05627,-2.309353 -0.0084,-2.155987 0.348281,-4.658656 0.116778,-0.8194101 0.307699,-1.6271672 0.422592,-2.4468435 0.05531,-0.3945691 0.02114,-0.7992085 0.08747,-1.1920741 0.09085,-0.5380569 0.286696,-0.910801 0.501333,-1.3872262 z m -5.915055,0.3598887 c -0.298207,1.6993146 0.0633,-0.5632658 -0.169144,2.3738704 -0.05084,0.6424193 -0.09457,1.2903893 -0.238723,1.9184886 -0.121289,0.5284938 -0.4121074,1.0062379 -0.5526855,1.5299313 -0.2554959,0.951794 -0.180237,1.264359 -0.1415618,2.184757 -0.052579,0.50643 -0.1336767,1.142155 -0.1243229,1.65151 0.00575,0.313233 0.073305,0.623716 0.0732,0.937002 -1.455e-4,0.432433 -0.092915,0.863172 -0.073951,1.295189 0.2417825,1.68072 0.1741963,0.868127 0.2242158,2.435898 -0.3552087,0.825935 0.1566253,1.652564 -0.025125,2.481771 -0.026848,0.122488 -0.1725819,0.216273 -0.159006,0.340932 0.014473,0.132898 0.1654175,0.211242 0.2317783,0.327291 0.028512,0.04987 0.033148,0.109991 0.049721,0.164985 -0.032769,0.16219 -0.071031,0.261425 -0.024027,0.431965 0.024107,0.08746 0.100465,0.156777 0.1162002,0.246129 0.056919,0.32321 -0.139997,0.0066 -0.1509163,0.313801 -0.00215,0.0605 0.063938,0.102805 0.095908,0.154207 0,0 2.5391922,0.832355 2.5391922,0.832355 v 0 c -0.0099,-0.0435 -0.01561,-0.08816 -0.02969,-0.130494 -0.02423,-0.07287 -0.103681,-0.139687 -0.08492,-0.214154 0.01758,-0.06979 0.139173,-0.06665 0.171811,-0.130801 0.145097,-0.285199 -0.310614,-0.510775 -0.105088,-0.800385 -0.117596,-0.227128 -0.224186,-0.491947 -0.221194,-0.753154 0.002,-0.169775 0.05953,-0.334585 0.07774,-0.503392 0.03929,-0.36436 0.119523,-1.63382 0.138151,-1.912697 -0.407731,-4.246631 0.128637,2.043447 -0.01583,-2.38654 -0.01508,-0.462462 -0.162179,-0.913988 -0.180546,-1.37633 -0.01176,-0.296043 0.111828,-0.588658 0.09075,-0.884183 -0.04237,-0.593889 -0.391669,-1.140129 -0.360108,-1.749519 0.120045,-0.274254 0.287956,-0.532218 0.360134,-0.822763 0.09907,-0.398804 0.101735,-0.815547 0.148287,-1.223828 0.06335,-0.555588 0.08993,-1.116073 0.181413,-1.6677274 C 12.61433,9.0514688 12.774415,8.431959 12.915496,7.8091747 13.034282,7.2848341 13.229421,6.7745048 13.289411,6.240236 13.319657,5.9708667 13.217925,5.7028458 13.182182,5.4341507 Z M 4.363962,3.1432139 C 4.1885252,3.8085166 4.0313107,4.3008567 3.9717581,5.0016961 c -0.02917,0.3432834 0.00753,0.6892117 -0.0035,1.0335555 -0.00874,0.2726909 -0.037726,0.5443567 -0.055765,0.8165905 -0.012929,0.1951148 -0.061063,0.3913777 -0.037139,0.5854513 0.029169,0.236611 0.1294442,0.458897 0.1941663,0.6883456 -0.038454,0.1972017 -0.1104773,0.3907485 -0.115362,0.5916051 -0.00654,0.2690941 0.055455,0.5354873 0.081436,0.8034041 0.028369,0.2925447 0.066103,0.5844588 0.081614,0.8779658 0.01376,0.260352 -0.013109,0.522117 0.00612,0.782121 0.025936,0.350707 0.1951695,1.260981 0.2531666,1.591356 0.010152,0.247691 0.020304,0.495382 0.030456,0.743073 0.1292922,0.279846 0.3628303,0.532289 0.3878767,0.83954 0.019511,0.239354 -0.2690363,0.429894 -0.2648227,0.670003 0.00553,0.315512 0.2506198,0.587614 0.2923809,0.900398 0.037967,0.284366 -0.054526,0.571871 -0.057511,0.858745 -0.00301,0.289333 0.026368,0.578096 0.039553,0.867146 0.2172296,1.293281 0.1341868,0.27862 0.024606,1.422717 -0.021903,0.228683 -0.038064,0.459835 -0.020432,0.688887 0.019133,0.248561 0.1439564,0.487563 0.1301495,0.736476 -0.014113,0.254433 -0.1643733,0.484179 -0.211746,0.73456 -0.04497,0.237678 -0.042667,0.481906 -0.064001,0.722859 0.052971,0.355486 -0.032614,0.709858 -0.020647,1.064585 0.00381,0.112964 0.075818,0.226044 0.048192,0.335645 -0.016296,0.06465 -0.1232063,0.06291 -0.1622717,0.116942 -0.07874,0.108899 0.0689,0.173269 0.1211957,0.215782 -0.1353453,0.827338 0.054782,0.01657 -0.2774077,0.720767 -0.00808,0.01713 0.03175,0.02068 0.047625,0.03102 0,0 2.4826598,1.015089 2.4826598,1.015089 v 0 c 0.00567,-0.05041 -0.00402,-0.105063 0.01701,-0.15122 0.2572472,-0.564421 0.2403133,-0.09843 0.1552033,-0.718069 0.00678,-0.06639 0.013555,-0.132786 0.020332,-0.199178 0.052623,-0.01963 0.1493208,-0.0034 0.1578706,-0.0589 0.011083,-0.07196 -0.095817,-0.113596 -0.1207693,-0.181993 -0.03764,-0.103174 -0.066001,-0.213487 -0.063566,-0.323286 0.00506,-0.22821 0.1798013,-0.800147 0.2310887,-0.98632 -0.3086854,-1.892597 -0.059933,0.301798 0.069395,-1.54487 0.017075,-0.243815 -0.076214,-0.483432 -0.093837,-0.727207 -0.016946,-0.234417 -0.032369,-0.471085 -0.0097,-0.705018 0.1272533,-1.313275 0.2588863,0.08895 0.010954,-1.417722 -0.3008729,-2.621507 0.011838,0.829141 0.044878,-1.72519 C 7.3249698,16.427143 7.2245458,16.144451 7.197609,15.855469 7.173643,15.598357 7.1977142,15.337922 7.168713,15.081328 7.110686,14.567927 6.9272056,14.073721 6.8900122,13.55658 c 0.011703,-0.48126 0.047,-1.044029 -0.027769,-1.52372 C 6.818182,11.750211 6.7067278,11.481067 6.6599134,11.19886 6.611873,10.909263 6.6055879,10.614269 6.5784252,10.321973 6.5671959,10.054033 6.5882704,9.7827713 6.5447372,9.5181531 6.5066173,9.2864399 6.4052579,9.0696867 6.3355183,8.8454536 6.3441198,8.6436368 6.3527212,8.4418199 6.3613228,8.2400031 6.4177319,8.0681086 6.5113411,7.9042105 6.53055,7.7243196 6.676666,6.3559449 6.2602105,7.42663 6.5814984,5.893522 6.650954,5.5620967 6.8697617,5.2698038 6.916248,4.9343849 6.9584139,4.6301397 6.8665594,4.3220914 6.8417151,4.0159446 Z" />
</svg>