<?xml version="1.0" encoding="UTF-8" standalone="no"?>
<!-- Created with Inkscape (http://www.inkscape.org/) -->

<svg
   width="30"
   height="30"
   viewBox="0 0 30 30"
   version="1.1"
   id="date"
   xmlns="http://www.w3.org/2000/svg"
   xmlns:svg="http://www.w3.org/2000/svg">
  <defs
     id="defs1" />
  <rect
     id="page"
     style="fill:#cbd3d7;fill-opacity:1;stroke-width:0.965237"
     width="23.664062"
     height="20.488317"
     x="3.1679688"
     y="6.2581778" />
  <rect
     id="binding"
     style="fill:#005f8f;fill-opacity:1"
     width="23.664062"
     height="3.004673"
     x="3.1679688"
     y="3.2535048" />
  <g id="weekdays" style="fill:#949494;fill-opacity:1;stroke-width:0.0898381">
    <rect
       width="2.625"
       height="1.6"
       x="16.8125"
       y="13.039663" />
    <rect
       width="2.625"
       height="1.6"
       x="4.3125"
       y="15.639664" />
    <rect
       width="2.625"
       height="1.6"
       x="7.4375"
       y="15.639664" />
    <rect
       width="2.625"
       height="1.6"
       x="10.5625"
       y="15.639664" />
    <rect
       width="2.625"
       height="1.6"
       x="13.6875"
       y="15.639664" />
    <rect
       width="2.625"
       height="1.6"
       x="16.8125"
       y="15.639664" />
    <rect
       width="2.625"
       height="1.6"
       x="4.3125"
       y="18.239689" />
    <rect
       width="2.625"
       height="1.6"
       x="7.4375"
       y="18.239689" />
    <rect
       width="2.625"
       height="1.6"
       x="10.5625"
       y="18.239689" />
    <rect
       width="2.625"
       height="1.6"
       x="13.6875"
       y="18.239689" />
    <rect
       width="2.625"
       height="1.6"
       x="16.8125"
       y="18.239689" />
    <rect
       width="2.625"
       height="1.6"
       x="4.3125"
       y="20.839703" />
    <rect
       width="2.625"
       height="1.6"
       x="7.4375"
       y="20.839703" />
    <rect
       width="2.625"
       height="1.6"
       x="10.5625"
       y="20.839703" />
    <rect
       width="2.625"
       height="1.6"
       x="13.6875"
       y="20.839703" />
    <rect
       width="2.625"
       height="1.6"
       x="16.8125"
       y="20.839703" />
    <rect
       width="2.625"
       height="1.6"
       x="4.3125"
       y="23.439705" />
    <rect
       width="2.625"
       height="1.6"
       x="7.4375"
       y="23.439705" />
    <rect
       width="2.625"
       height="1.6"
       x="10.5625"
       y="23.439705" />
    <rect
       width="2.625"
       height="1.6"
       x="13.6875"
       y="23.439705" />
    <rect
       width="2.625"
       height="1.6"
       x="16.8125"
       y="23.439705" />
  </g>
  <g id="weekends" style="fill:#f69292;fill-opacity:1;stroke-width:0.0898381">
    <rect
       width="2.625"
       height="1.6"
       x="19.9375"
       y="13.039663" />
    <rect
       width="2.625"
       height="1.6"
       x="23.0625"
       y="13.039663" />
    <rect
       width="2.625"
       height="1.6"
       x="19.9375"
       y="15.639664" />
    <rect
       width="2.625"
       height="1.6"
       x="23.0625"
       y="15.639664" />
    <rect
       width="2.625"
       height="1.6"
       x="19.9375"
       y="18.239689" />
    <rect
       width="2.625"
       height="1.6"
       x="23.0625"
       y="18.239689" />
    <rect
       width="2.625"
       height="1.6"
       x="19.9375"
       y="20.839703" />
    <rect
       width="2.625"
       height="1.6"
       x="23.0625"
       y="20.839703" />
    <rect
       width="2.625"
       height="1.6"
       x="19.9375"
       y="23.439705" />
    <rect
       width="2.625"
       height="1.6"
       x="23.0625"
       y="23.439705" />
  </g>
  <g id="weekday-head" style="fill:#595959">
    <path
       d="M 4.7031237,11.705597 V 9.7967403 H 5.2799473 L 5.6263019,11.098825 5.9687503,9.7967403 H 6.546876 V 11.705597 H 6.1888026 V 10.202991 L 5.8098959,11.705597 H 5.4388017 L 5.061197,10.202991 v 1.502606 z"
       aria-label="M" />
    <path
       d="m 8.5579424,11.705597 v -1.58594 H 7.9915354 V 9.7967403 h 1.516929 V 10.119657 H 8.9433596 v 1.58594 z"
       aria-label="T" />
    <path
       d="M 11.138018,11.705597 10.682288,9.7967403 H 11.07682 L 11.364581,11.10794 11.71354,9.7967403 h 0.458334 L 12.50651,11.130075 12.799479,9.7967403 H 13.1875 l -0.463542,1.9088567 h -0.408855 l -0.380209,-1.427085 -0.378906,1.427085 z"
       aria-label="W" />
    <path
       d="m 14.807943,11.705597 v -1.58594 H 14.241536 V 9.7967403 h 1.516929 V 10.119657 H 15.19336 v 1.58594 z"
       aria-label="T" />
    <path
       d="M 17.462236,11.705597 V 9.7967403 h 1.308595 v 0.3229167 h -0.923178 v 0.451824 h 0.796876 v 0.322917 h -0.796876 v 0.811199 z"
       aria-label="F" />
  </g>
  <g id="weekend-head" style="fill:#b30f0f">
    <path
       d="m 20.495442,11.084502 0.375001,-0.03646 q 0.03385,0.188802 0.136719,0.277344 0.104166,0.08854 0.279948,0.08854 0.186198,0 0.279948,-0.07813 0.09505,-0.07943 0.09505,-0.184896 0,-0.06771 -0.04036,-0.114584 -0.03906,-0.04818 -0.138021,-0.08333 -0.06771,-0.02344 -0.308594,-0.08333 -0.309897,-0.07682 -0.434897,-0.188802 -0.175781,-0.157552 -0.175781,-0.384115 0,-0.145834 0.08203,-0.272136 0.08333,-0.1276041 0.238282,-0.1940105 0.15625,-0.066406 0.376302,-0.066406 0.359376,0 0.540365,0.1575523 0.182292,0.1575525 0.191407,0.4205735 l -0.385417,0.01693 q -0.02474,-0.147136 -0.106771,-0.210938 -0.08073,-0.0651 -0.24349,-0.0651 -0.167969,0 -0.263021,0.06901 -0.0612,0.04427 -0.0612,0.118489 0,0.06771 0.05729,0.115886 0.07292,0.0612 0.354168,0.127604 0.28125,0.06641 0.415365,0.138021 0.135417,0.07031 0.210938,0.194011 0.07682,0.122396 0.07682,0.303386 0,0.164062 -0.09115,0.307292 -0.09115,0.143229 -0.257813,0.213542 -0.166667,0.06901 -0.415365,0.06901 -0.36198,0 -0.555991,-0.166667 -0.19401,-0.167969 -0.231771,-0.488282 z"
       aria-label="S" />
    <path
       d="m 23.598958,11.083851 0.375,-0.03646 q 0.03385,0.188802 0.136719,0.277344 0.104167,0.08854 0.279949,0.08854 0.186198,0 0.279948,-0.07813 0.09505,-0.07943 0.09505,-0.184896 0,-0.06771 -0.04037,-0.114583 -0.03906,-0.04818 -0.138021,-0.08333 -0.06771,-0.02344 -0.308594,-0.08333 -0.309896,-0.07682 -0.434896,-0.188802 -0.175782,-0.157553 -0.175782,-0.384115 0,-0.145834 0.08203,-0.272136 0.08333,-0.1276045 0.238281,-0.1940108 0.15625,-0.066406 0.376303,-0.066406 0.359375,0 0.540365,0.1575523 0.182292,0.1575519 0.191407,0.4205739 l -0.385418,0.01693 q -0.02474,-0.147136 -0.106771,-0.210938 -0.08073,-0.0651 -0.243489,-0.0651 -0.167969,0 -0.263022,0.06901 -0.0612,0.04427 -0.0612,0.11849 0,0.06771 0.05729,0.115885 0.07292,0.0612 0.354167,0.127605 0.281251,0.06641 0.415365,0.138021 0.135417,0.07031 0.210938,0.19401 0.07682,0.122396 0.07682,0.303386 0,0.164063 -0.09115,0.307292 -0.09115,0.14323 -0.257813,0.213542 -0.166667,0.06901 -0.415365,0.06901 -0.361979,0 -0.55599,-0.166667 -0.194011,-0.167969 -0.231771,-0.488282 z"
       aria-label="S" />
  </g>
</svg>
